<svg id="SvgjsSvg1011" width="288" height="288" xmlns="http://www.w3.org/2000/svg" version="1.1" xmlns:xlink="http://www.w3.org/1999/xlink" xmlns:svgjs="http://svgjs.com/svgjs"><defs id="SvgjsDefs1012"></defs><g id="SvgjsG1013"><svg xmlns="http://www.w3.org/2000/svg" viewBox="0 0 24 24" width="288" height="288"><path d="M21,14H20V7a3,3,0,0,0-3-3H7A3,3,0,0,0,4,7v7H3a1,1,0,0,0-1,1v2a3,3,0,0,0,3,3H19a3,3,0,0,0,3-3V15A1,1,0,0,0,21,14ZM6,7A1,1,0,0,1,7,6H17a1,1,0,0,1,1,1v7H6ZM20,17a1,1,0,0,1-1,1H5a1,1,0,0,1-1-1V16H20Z" fill="#8d8d8d" class="color000 svgShape"></path></svg></g></svg>