<svg id="SvgjsSvg1086" width="288" height="288" xmlns="http://www.w3.org/2000/svg" version="1.1" xmlns:xlink="http://www.w3.org/1999/xlink" xmlns:svgjs="http://svgjs.com/svgjs"><defs id="SvgjsDefs1087"></defs><g id="SvgjsG1088"><svg xmlns="http://www.w3.org/2000/svg" fill-rule="evenodd" stroke-linejoin="round" stroke-miterlimit="2" clip-rule="evenodd" viewBox="0 0 48 48" width="288" height="288"><g transform="translate(-77 -68)" fill="#8d8d8d" class="color000 svgShape"><path d="M96 72h24a1 1 0 0 0 0-2H96a1 1 0 0 0 0 2ZM96 77h6a1 1 0 0 0 0-2h-6a1 1 0 0 0 0 2ZM112 79h-6a1 1 0 0 0 0 2h6a1 1 0 0 0 0-2ZM110 77h2a1 1 0 0 0 0-2h-2a1 1 0 0 0 0 2ZM98 79h-2a1 1 0 0 0 0 2h2a1 1 0 0 0 0-2ZM91 75v7a1 1 0 0 0 2 0v-7a1 1 0 0 0-2 0ZM117 109V91a1 1 0 0 0-2 0v18a1 1 0 0 0 2 0zm0-26v-8a1 1 0 0 0-2 0v8a1 1 0 0 0 2 0z" fill="#8d8d8d" class="color000 svgShape"></path><circle cx="33" cy="80" r="1" transform="matrix(-1 0 0 1 149 7)" fill="#8d8d8d" class="color000 svgShape"></circle><path d="M117 75c0-1.656 1.344-3 3-3a1 1 0 0 0 0-2c-2.76 0-5 2.24-5 5a1 1 0 0 0 2 0ZM93 75c0-1.656 1.344-3 3-3a1 1 0 0 0 0-2c-2.76 0-5 2.24-5 5a1 1 0 0 0 2 0ZM91 109c0 2.76 2.24 5 5 5a1 1 0 0 0 0-2c-1.656 0-3-1.344-3-3a1 1 0 0 0-2 0ZM115 109c0 2.76 2.24 5 5 5a1 1 0 0 0 0-2c-1.656 0-3-1.344-3-3a1 1 0 0 0-2 0Z" fill="#8d8d8d" class="color000 svgShape"></path><path d="M96 114h24a1 1 0 0 0 0-2H96a1 1 0 0 0 0 2ZM92 85c-4.415 0-8 3.585-8 8 0 4.416 3.585 8 8 8 4.416 0 8-3.584 8-8 0-4.415-3.584-8-8-8Zm0 2c3.313 0 6 2.688 6 6 0 3.313-2.687 6-6 6-3.312 0-6-2.687-6-6 0-3.312 2.688-6 6-6Z" fill="#8d8d8d" class="color000 svgShape"></path><path d="M91.999 89.5a3.502 3.502 0 0 0-3.5 3.5c0 1.931 1.568 3.5 3.5 3.5 1.931 0 3.5-1.569 3.5-3.5 0-1.932-1.569-3.5-3.5-3.5Zm0 2a1.501 1.501 0 0 1 0 3 1.501 1.501 0 0 1 0-3ZM98.239 96.985a1 1 0 0 0-1.634-.141A5.99 5.99 0 0 1 92 99l-.089-.001a1 1 0 0 0-.881 1.5L95.938 109a.999.999 0 0 0 1.794-.128l1.126-2.814 3 .432a1 1 0 0 0 1.008-1.49l-4.627-8.015Zm-4.697 3.866a7.98 7.98 0 0 0 3.616-1.737l2.946 5.103-1.74-.251a1 1 0 0 0-1.07.619l-.654 1.632-3.098-5.366Z" fill="#8d8d8d" class="color000 svgShape"></path><path d="M87.395 96.844a1.001 1.001 0 0 0-1.634.141L81.134 105a1.001 1.001 0 0 0 1.008 1.49l3-.432 1.126 2.814a.999.999 0 0 0 1.794.128l4.908-8.501a1 1 0 0 0-.881-1.5L92 99a5.99 5.99 0 0 1-4.605-2.156Zm3.063 4.007-3.098 5.366-.654-1.632a1 1 0 0 0-1.07-.619l-1.74.251 2.946-5.103a7.98 7.98 0 0 0 3.616 1.737Z" fill="#8d8d8d" class="color000 svgShape"></path><circle cx="33" cy="80" r="1" transform="translate(73 -4)" fill="#8d8d8d" class="color000 svgShape"></circle><circle cx="33" cy="80" r="1" transform="matrix(-1 0 0 1 135 0)" fill="#8d8d8d" class="color000 svgShape"></circle></g></svg></g></svg>